<svg width="590" height="590" viewBox="0 0 590 590" fill="none" xmlns="http://www.w3.org/2000/svg"><g clip-path="url(#clip0)"><circle cx="295" cy="86" r="85" fill="#272D30"/><path d="M487.872 551.635C426.724 576.964 361.186 590 295 590C228.814 590 163.276 576.964 102.128 551.635L256.426 179.127C268.655 184.193 281.763 186.8 295 186.8C308.237 186.8 321.345 184.193 333.574 179.127L487.872 551.635Z" fill="#272D30"/><path d="M370 433C370 474.421 336.421 508 295 508C253.579 508 220 474.421 220 433C220 391.579 253.579 358 295 358C336.421 358 370 391.579 370 433ZM242.5 433C242.5 461.995 266.005 485.5 295 485.5C323.995 485.5 347.5 461.995 347.5 433C347.5 404.005 323.995 380.5 295 380.5C266.005 380.5 242.5 404.005 242.5 433Z" fill="#D28402"/><circle cx="295" cy="86" r="50" fill="#D28402"/><path d="M487.872 551.635C426.724 576.964 361.186 590 295 590C228.814 590 163.276 576.964 102.128 551.635L121.415 505.072C176.448 527.867 235.432 539.6 295 539.6C354.568 539.6 413.552 527.867 468.585 505.072L487.872 551.635Z" fill="#1A1D1E"/><rect x="284" y="126" width="23" height="248" fill="#D28402"/></g><defs><clipPath id="clip0"><rect width="590" height="590" fill="white"/></clipPath></defs></svg>